<mxfile host="app.diagrams.net" agent="Mozilla/5.0 (Windows NT 10.0; Win64; x64) AppleWebKit/537.36 (KHTML, like Gecko) Chrome/132.0.0.0 Safari/537.36 Edg/132.0.0.0" version="26.0.11">
  <diagram name="Connections" id="2eihcO0CY0CJ8QIJ0cU6">
    <mxGraphModel dx="1316" dy="790" grid="1" gridSize="10" guides="1" tooltips="1" connect="1" arrows="1" fold="1" page="1" pageScale="1" pageWidth="850" pageHeight="1100" math="0" shadow="0">
      <root>
        <mxCell id="0" />
        <mxCell id="1" parent="0" />
        <mxCell id="trZeB-wr3JC8ksuu1v1w-2" value="" style="endArrow=classic;html=1;rounded=0;entryX=0.25;entryY=1;entryDx=0;entryDy=0;" parent="1" target="aaSVl1S8FnoipKj83bau-34" edge="1">
          <mxGeometry width="50" height="50" relative="1" as="geometry">
            <mxPoint x="92" y="655" as="sourcePoint" />
            <mxPoint x="142" y="635" as="targetPoint" />
          </mxGeometry>
        </mxCell>
        <mxCell id="trZeB-wr3JC8ksuu1v1w-3" value="" style="group" parent="1" vertex="1" connectable="0">
          <mxGeometry x="42" y="515.0005882352941" width="300" height="119.99941176470588" as="geometry" />
        </mxCell>
        <mxCell id="aaSVl1S8FnoipKj83bau-34" value="Ground &lt;br&gt;Station&lt;br&gt;&lt;br&gt;YAMCS" style="rounded=1;whiteSpace=wrap;html=1;fillColor=#1ba1e2;strokeColor=#006EAF;fontStyle=1;fontColor=#ffffff;align=center;spacingLeft=25;" parent="trZeB-wr3JC8ksuu1v1w-3" vertex="1">
          <mxGeometry width="200" height="83.52941176470588" as="geometry" />
        </mxCell>
        <mxCell id="trZeB-wr3JC8ksuu1v1w-1" value="" style="fontColor=#0066CC;verticalAlign=top;verticalLabelPosition=bottom;labelPosition=center;align=center;html=1;outlineConnect=0;fillColor=default;strokeColor=#6881B3;gradientColor=none;gradientDirection=north;strokeWidth=2;shape=mxgraph.networks.satellite_dish;" parent="trZeB-wr3JC8ksuu1v1w-3" vertex="1">
          <mxGeometry x="35" y="21.769411764705865" width="35" height="40" as="geometry" />
        </mxCell>
        <mxCell id="trZeB-wr3JC8ksuu1v1w-27" value="" style="image;html=1;image=img/lib/clip_art/general/Full_Folder_128x128.png" parent="trZeB-wr3JC8ksuu1v1w-3" vertex="1">
          <mxGeometry x="170" y="50" width="40" height="40" as="geometry" />
        </mxCell>
        <mxCell id="trZeB-wr3JC8ksuu1v1w-28" value="MDB: XTCE&amp;nbsp;" style="text;html=1;align=center;verticalAlign=middle;resizable=0;points=[];autosize=1;strokeColor=none;fillColor=none;" parent="trZeB-wr3JC8ksuu1v1w-3" vertex="1">
          <mxGeometry x="210" y="59.99941176470588" width="90" height="30" as="geometry" />
        </mxCell>
        <mxCell id="trZeB-wr3JC8ksuu1v1w-4" value="Radio In (TM Realtime): 6011" style="text;html=1;align=center;verticalAlign=middle;resizable=0;points=[];autosize=1;strokeColor=none;fillColor=none;" parent="1" vertex="1">
          <mxGeometry x="92" y="615" width="180" height="30" as="geometry" />
        </mxCell>
        <mxCell id="trZeB-wr3JC8ksuu1v1w-9" value="" style="endArrow=classic;html=1;rounded=0;" parent="1" edge="1">
          <mxGeometry width="50" height="50" relative="1" as="geometry">
            <mxPoint x="92" y="515" as="sourcePoint" />
            <mxPoint x="92" y="475" as="targetPoint" />
          </mxGeometry>
        </mxCell>
        <mxCell id="trZeB-wr3JC8ksuu1v1w-10" value="" style="shadow=0;dashed=0;html=1;strokeColor=none;fillColor=#EF8F21;labelPosition=center;verticalLabelPosition=bottom;verticalAlign=top;align=center;outlineConnect=0;shape=mxgraph.veeam.2d.end_to_end_encryption;" parent="1" vertex="1">
          <mxGeometry x="62" y="415" width="60.8" height="60" as="geometry" />
        </mxCell>
        <mxCell id="trZeB-wr3JC8ksuu1v1w-11" value="CryptoLib" style="text;html=1;align=center;verticalAlign=middle;resizable=0;points=[];autosize=1;strokeColor=none;fillColor=none;" parent="1" vertex="1">
          <mxGeometry x="122.80000000000001" y="430" width="70" height="30" as="geometry" />
        </mxCell>
        <mxCell id="trZeB-wr3JC8ksuu1v1w-12" value="Radio Out (TC Realtime): 6010" style="text;html=1;align=center;verticalAlign=middle;resizable=0;points=[];autosize=1;strokeColor=none;fillColor=none;" parent="1" vertex="1">
          <mxGeometry x="92" y="475" width="190" height="30" as="geometry" />
        </mxCell>
        <mxCell id="trZeB-wr3JC8ksuu1v1w-13" value="" style="endArrow=none;dashed=1;html=1;dashPattern=1 3;strokeWidth=2;rounded=0;" parent="1" edge="1">
          <mxGeometry width="50" height="50" relative="1" as="geometry">
            <mxPoint x="92" y="675" as="sourcePoint" />
            <mxPoint x="92" y="655" as="targetPoint" />
          </mxGeometry>
        </mxCell>
        <mxCell id="trZeB-wr3JC8ksuu1v1w-14" value="" style="endArrow=classic;html=1;rounded=0;entryX=0.153;entryY=0.98;entryDx=0;entryDy=0;entryPerimeter=0;" parent="1" target="aaSVl1S8FnoipKj83bau-34" edge="1">
          <mxGeometry width="50" height="50" relative="1" as="geometry">
            <mxPoint x="72" y="685" as="sourcePoint" />
            <mxPoint x="12" y="625" as="targetPoint" />
          </mxGeometry>
        </mxCell>
        <mxCell id="trZeB-wr3JC8ksuu1v1w-15" value="" style="endArrow=none;dashed=1;html=1;dashPattern=1 3;strokeWidth=2;rounded=0;" parent="1" edge="1">
          <mxGeometry width="50" height="50" relative="1" as="geometry">
            <mxPoint x="72" y="705" as="sourcePoint" />
            <mxPoint x="72" y="685" as="targetPoint" />
          </mxGeometry>
        </mxCell>
        <mxCell id="trZeB-wr3JC8ksuu1v1w-17" value="Debug In (TM Realtime): 5013" style="text;html=1;align=center;verticalAlign=middle;resizable=0;points=[];autosize=1;strokeColor=none;fillColor=none;" parent="1" vertex="1">
          <mxGeometry x="-108" y="615" width="180" height="30" as="geometry" />
        </mxCell>
        <mxCell id="trZeB-wr3JC8ksuu1v1w-18" value="" style="group" parent="1" vertex="1" connectable="0">
          <mxGeometry x="-178" y="395.0005882352941" width="200" height="83.52941176470586" as="geometry" />
        </mxCell>
        <mxCell id="trZeB-wr3JC8ksuu1v1w-19" value="NOS FSW" style="rounded=1;whiteSpace=wrap;html=1;fillColor=#1ba1e2;strokeColor=#006EAF;fontStyle=1;fontColor=#ffffff;align=center;spacingLeft=30;" parent="trZeB-wr3JC8ksuu1v1w-18" vertex="1">
          <mxGeometry width="200" height="83.52941176470588" as="geometry" />
        </mxCell>
        <mxCell id="trZeB-wr3JC8ksuu1v1w-51" value="" style="image;html=1;image=img/lib/clip_art/computers/Software_128x128.png" parent="trZeB-wr3JC8ksuu1v1w-18" vertex="1">
          <mxGeometry x="31" y="23" width="40" height="36.77" as="geometry" />
        </mxCell>
        <mxCell id="trZeB-wr3JC8ksuu1v1w-22" value="Debug Out (TC Realtime): 5012" style="text;html=1;align=center;verticalAlign=middle;resizable=0;points=[];autosize=1;strokeColor=none;fillColor=none;" parent="1" vertex="1">
          <mxGeometry x="-148" y="555" width="190" height="30" as="geometry" />
        </mxCell>
        <mxCell id="trZeB-wr3JC8ksuu1v1w-24" value="" style="endArrow=classic;html=1;rounded=0;entryX=1.004;entryY=0.475;entryDx=0;entryDy=0;entryPerimeter=0;" parent="1" target="aaSVl1S8FnoipKj83bau-34" edge="1">
          <mxGeometry width="50" height="50" relative="1" as="geometry">
            <mxPoint x="292" y="555" as="sourcePoint" />
            <mxPoint x="262" y="555" as="targetPoint" />
          </mxGeometry>
        </mxCell>
        <mxCell id="trZeB-wr3JC8ksuu1v1w-25" value="" style="endArrow=none;dashed=1;html=1;dashPattern=1 3;strokeWidth=2;rounded=0;" parent="1" edge="1">
          <mxGeometry width="50" height="50" relative="1" as="geometry">
            <mxPoint x="312" y="555" as="sourcePoint" />
            <mxPoint x="292" y="555" as="targetPoint" />
          </mxGeometry>
        </mxCell>
        <mxCell id="trZeB-wr3JC8ksuu1v1w-26" value="42 (Truth Data): 5111" style="text;html=1;align=center;verticalAlign=middle;resizable=0;points=[];autosize=1;strokeColor=none;fillColor=none;" parent="1" vertex="1">
          <mxGeometry x="232" y="525" width="140" height="30" as="geometry" />
        </mxCell>
        <mxCell id="trZeB-wr3JC8ksuu1v1w-29" value="nos3_sc_1&lt;span style=&quot;white-space: pre;&quot;&gt;&#x9;&lt;/span&gt;&lt;span style=&quot;white-space: pre;&quot;&gt;&#x9;&lt;/span&gt;172.xx.0.0/16" style="html=1;outlineConnect=0;fillColor=#CCCCCC;strokeColor=#6881B3;gradientColor=none;gradientDirection=north;strokeWidth=2;shape=mxgraph.networks.bus;gradientColor=none;gradientDirection=north;fontColor=#ffffff;perimeter=backbonePerimeter;backboneSize=20;" parent="1" vertex="1">
          <mxGeometry x="-198" y="505" width="222" height="20" as="geometry" />
        </mxCell>
        <mxCell id="trZeB-wr3JC8ksuu1v1w-42" value="" style="line;strokeWidth=2;direction=south;html=1;perimeter=backbonePerimeter;points=[];outlineConnect=0;" parent="1" vertex="1">
          <mxGeometry x="-378" y="515" width="10" height="30" as="geometry" />
        </mxCell>
        <mxCell id="trZeB-wr3JC8ksuu1v1w-44" value="" style="line;strokeWidth=2;html=1;perimeter=backbonePerimeter;points=[];outlineConnect=0;" parent="1" vertex="1">
          <mxGeometry x="-18" y="549" width="60" height="10" as="geometry" />
        </mxCell>
        <mxCell id="trZeB-wr3JC8ksuu1v1w-45" value="" style="line;strokeWidth=2;direction=south;html=1;perimeter=backbonePerimeter;points=[];outlineConnect=0;" parent="1" vertex="1">
          <mxGeometry x="-23" y="525" width="10" height="30" as="geometry" />
        </mxCell>
        <mxCell id="trZeB-wr3JC8ksuu1v1w-46" value="" style="line;strokeWidth=2;direction=south;html=1;perimeter=backbonePerimeter;points=[];outlineConnect=0;" parent="1" vertex="1">
          <mxGeometry x="-81" y="479" width="10" height="26" as="geometry" />
        </mxCell>
        <mxCell id="9mtJ1PPDXRMtg-2RNdBi-2" value="" style="group" parent="1" vertex="1" connectable="0">
          <mxGeometry x="-390" y="465" width="244" height="180" as="geometry" />
        </mxCell>
        <mxCell id="trZeB-wr3JC8ksuu1v1w-31" value="nos core" style="html=1;outlineConnect=0;fillColor=#CCCCCC;strokeColor=#6881B3;gradientColor=none;gradientDirection=north;strokeWidth=2;shape=mxgraph.networks.bus;gradientColor=none;gradientDirection=north;fontColor=#ffffff;perimeter=backbonePerimeter;backboneSize=20;" parent="9mtJ1PPDXRMtg-2RNdBi-2" vertex="1">
          <mxGeometry y="80" width="200" height="20" as="geometry" />
        </mxCell>
        <mxCell id="trZeB-wr3JC8ksuu1v1w-32" value="NOS Time Driver" style="rounded=0;whiteSpace=wrap;html=1;fillColor=#ffe6cc;strokeColor=#d79b00;" parent="9mtJ1PPDXRMtg-2RNdBi-2" vertex="1">
          <mxGeometry y="130" width="90" height="50" as="geometry" />
        </mxCell>
        <mxCell id="trZeB-wr3JC8ksuu1v1w-34" value="NOS Terminal" style="rounded=0;whiteSpace=wrap;html=1;spacingBottom=10;fillColor=#ffe6cc;strokeColor=#d79b00;" parent="9mtJ1PPDXRMtg-2RNdBi-2" vertex="1">
          <mxGeometry x="100" y="130" width="90" height="50" as="geometry" />
        </mxCell>
        <mxCell id="trZeB-wr3JC8ksuu1v1w-35" value="NOS UDP Terminal" style="rounded=0;whiteSpace=wrap;html=1;fillColor=#ffe6cc;strokeColor=#d79b00;" parent="9mtJ1PPDXRMtg-2RNdBi-2" vertex="1">
          <mxGeometry width="90" height="50" as="geometry" />
        </mxCell>
        <mxCell id="trZeB-wr3JC8ksuu1v1w-40" value="" style="line;strokeWidth=2;direction=south;html=1;perimeter=backbonePerimeter;points=[];outlineConnect=0;" parent="9mtJ1PPDXRMtg-2RNdBi-2" vertex="1">
          <mxGeometry x="140" y="100" width="10" height="30" as="geometry" />
        </mxCell>
        <mxCell id="trZeB-wr3JC8ksuu1v1w-41" value="" style="line;strokeWidth=2;direction=south;html=1;perimeter=backbonePerimeter;points=[];outlineConnect=0;" parent="9mtJ1PPDXRMtg-2RNdBi-2" vertex="1">
          <mxGeometry x="40" y="100" width="10" height="30" as="geometry" />
        </mxCell>
        <mxCell id="trZeB-wr3JC8ksuu1v1w-47" value="" style="line;strokeWidth=2;direction=south;html=1;perimeter=backbonePerimeter;points=[];outlineConnect=0;" parent="9mtJ1PPDXRMtg-2RNdBi-2" vertex="1">
          <mxGeometry x="234" y="60" width="10" height="30" as="geometry" />
        </mxCell>
        <mxCell id="trZeB-wr3JC8ksuu1v1w-50" value="" style="image;sketch=0;aspect=fixed;html=1;points=[];align=center;fontSize=12;image=img/lib/mscae/Clock.svg;" parent="9mtJ1PPDXRMtg-2RNdBi-2" vertex="1">
          <mxGeometry x="4" y="156" width="20" height="20" as="geometry" />
        </mxCell>
        <mxCell id="trZeB-wr3JC8ksuu1v1w-52" value="" style="fontColor=#0066CC;verticalAlign=top;verticalLabelPosition=bottom;labelPosition=center;align=center;html=1;outlineConnect=0;fillColor=#CCCCCC;strokeColor=#6881B3;gradientColor=none;gradientDirection=north;strokeWidth=2;shape=mxgraph.networks.terminal;" parent="9mtJ1PPDXRMtg-2RNdBi-2" vertex="1">
          <mxGeometry x="135.5" y="158" width="19" height="20" as="geometry" />
        </mxCell>
        <mxCell id="9mtJ1PPDXRMtg-2RNdBi-1" value="" style="line;strokeWidth=2;html=1;perimeter=backbonePerimeter;points=[];outlineConnect=0;" parent="9mtJ1PPDXRMtg-2RNdBi-2" vertex="1">
          <mxGeometry x="190" y="85" width="50" height="10" as="geometry" />
        </mxCell>
      </root>
    </mxGraphModel>
  </diagram>
</mxfile>
